<svg xmlns="http://www.w3.org/2000/svg" viewBox="0 0 360 100">
<title>Tecer</title>
<path fill-rule="evenodd" fill="#ffffff" d="M 7 50 A 80 80 0 0 1 93 50 A 80 80 0 0 1 7 50 Z M 50 7 A 80 80 0 0 1 50 93 A 80 80 0 0 1 50 7 Z"/>
<g transform="translate(132,1.74)"><g fill="#ffffff" transform="translate(0,76) scale(0.10857142857142857,-0.10857142857142857)"><path transform="translate(0.00,0)" d="M5 460V365H266.25V460ZM82.5 620V0H188.75V620Z"/><path transform="translate(246.00,0)" d="M269.25 -10Q348.75 -10 406.0 21.25Q463.25 52.5 499.5 114.5L406.25 152.25Q384.5 115.25 351.5 97.0Q318.5 78.75 274.25 78.75Q232.25 78.75 202.875 97.0Q173.5 115.25 158.375 149.875Q143.25 184.5 143.5 233.75Q144.25 284 159.375 318.0Q174.5 352 203.125 369.75Q231.75 387.5 273 387.5Q307.25 387.5 332.625 372.5Q358 357.5 372.375 330.75Q386.75 304 386.75 267.25Q386.75 260.25 383.5 249.875Q380.25 239.5 376.5 233.5L410 279.5H98.5V205H502.5Q503 209.25 503.375 218.0Q503.75 226.75 503.75 235.25Q503.75 308.75 476.625 361.375Q449.5 414 398.25 442.0Q347 470 274.25 470Q201.25 470 147.125 440.375Q93 410.75 63.375 356.875Q33.75 303 33.75 230Q33.75 158 63.0 104.125Q92.25 50.25 145.5 20.125Q198.75 -10 269.25 -10Z"/><path transform="translate(760.00,0)" d="M141 230Q141 272.5 159.875 305.75Q178.75 339 211.25 357.875Q243.75 376.75 284.25 376.75Q316.25 376.75 346.125 366.75Q376 356.75 399.5 339.375Q423 322 434.25 299.25V418.5Q410.25 442.25 369.25 456.125Q328.25 470 279.25 470Q208.5 470 152.0 439.5Q95.5 409 62.75 355.125Q30 301.25 30 230Q30 159.75 62.75 105.375Q95.5 51 152.0 20.5Q208.5 -10 279.25 -10Q328.25 -10 369.25 3.875Q410.25 17.75 434.25 42V161Q423 139.25 400.0 121.375Q377 103.5 347.25 93.375Q317.5 83.25 284.25 83.25Q243.75 83.25 211.25 102.0Q178.75 120.75 159.875 153.625Q141 186.5 141 230Z"/><path transform="translate(1219.00,0)" d="M269.25 -10Q348.75 -10 406.0 21.25Q463.25 52.5 499.5 114.5L406.25 152.25Q384.5 115.25 351.5 97.0Q318.5 78.75 274.25 78.75Q232.25 78.75 202.875 97.0Q173.5 115.25 158.375 149.875Q143.25 184.5 143.5 233.75Q144.25 284 159.375 318.0Q174.5 352 203.125 369.75Q231.75 387.5 273 387.5Q307.25 387.5 332.625 372.5Q358 357.5 372.375 330.75Q386.75 304 386.75 267.25Q386.75 260.25 383.5 249.875Q380.25 239.5 376.5 233.5L410 279.5H98.5V205H502.5Q503 209.25 503.375 218.0Q503.75 226.75 503.75 235.25Q503.75 308.75 476.625 361.375Q449.5 414 398.25 442.0Q347 470 274.25 470Q201.25 470 147.125 440.375Q93 410.75 63.375 356.875Q33.75 303 33.75 230Q33.75 158 63.0 104.125Q92.25 50.25 145.5 20.125Q198.75 -10 269.25 -10Z"/><path transform="translate(1733.00,0)" d="M176.25 460H68.75V0H176.25ZM312.75 344.5 365.5 436Q349.75 454.5 327.75 462.5Q305.75 470.5 280.75 470.5Q246.25 470.5 213.625 445.375Q181 420.25 160.625 377.625Q140.25 335 140.25 280L176.25 258.75Q176.25 291.75 183.75 316.5Q191.25 341.25 208.25 355.0Q225.25 368.75 252 368.75Q272 368.75 285.25 362.625Q298.5 356.5 312.75 344.5Z"/></g></g>
</svg>